<svg xmlns="http://www.w3.org/2000/svg" version="1.1" xmlns:xlink="http://www.w3.org/1999/xlink" xmlns:svgjs="http://svgjs.dev/svgjs" width="1440" height="560" preserveAspectRatio="none" viewBox="0 0 1440 560"><g mask="url(&quot;#SvgjsMask1371&quot;)" fill="none"><path d="M130.191,279.244C179.847,275.764,214.435,236.297,240.151,193.676C267.078,149.049,293.101,96.299,268.202,50.51C242.582,3.394,183.672,-12.549,130.191,-8.543C83.35,-5.034,49.16,29.223,23.878,68.811C-4.276,112.897,-33.74,164.528,-10.152,211.217C14.973,260.95,74.608,283.139,130.191,279.244" fill="rgba(194, 194, 194, 0.59)" class="triangle-float1"></path><path d="M142.657,284.407C197.026,284.971,254.381,269.942,281.938,223.071C309.79,175.699,296.248,117.434,268.823,69.814C241.336,22.087,197.717,-20.102,142.657,-18.771C89.225,-17.479,52.822,29.079,26.63,75.669C1.118,121.05,-16.998,174.726,8.295,220.23C34.14,266.727,89.463,283.855,142.657,284.407" fill="rgba(194, 194, 194, 0.59)" class="triangle-float3"></path><path d="M82.165,169.166C120.256,171.235,164.171,173.466,185.36,141.745C208.085,107.724,199.231,61.742,176.761,27.551C156.387,-3.451,119.172,-17.87,82.165,-15.279C49.342,-12.981,24.584,10.928,8.03,39.363C-8.655,68.024,-19.731,102.701,-3.283,131.499C13.263,160.469,48.852,167.357,82.165,169.166" fill="rgba(194, 194, 194, 0.59)" class="triangle-float2"></path><path d="M1337.991,54.508C1352.362,53.655,1360.457,39.583,1367.421,26.983C1374.065,14.963,1380.512,1.288,1374.126,-10.871C1367.406,-23.665,1352.439,-29.358,1337.991,-29.05C1324.098,-28.754,1311.614,-21.28,1304.432,-9.384C1296.982,2.957,1295.111,18.116,1301.814,30.878C1308.993,44.545,1322.58,55.423,1337.991,54.508" fill="rgba(194, 194, 194, 0.59)" class="triangle-float1"></path><path d="M1340.58,60.174C1357.937,61.704,1374.932,52.532,1383.767,37.514C1392.72,22.295,1392.647,2.875,1382.983,-11.902C1374.077,-25.52,1356.834,-29.29,1340.58,-28.524C1325.827,-27.829,1311.538,-21.232,1304.579,-8.205C1297.956,4.194,1302.282,18.472,1308.831,30.91C1316.017,44.56,1325.214,58.82,1340.58,60.174" fill="rgba(194, 194, 194, 0.59)" class="triangle-float1"></path><path d="M1436.312,252.472C1483.488,249.691,1513.125,207.228,1536.589,166.207C1559.824,125.587,1581.026,78.745,1559.43,37.23C1536.568,-6.718,1485.843,-27.47,1436.312,-26.559C1388.399,-25.677,1345.385,0.487,1320.8,41.621C1295.514,83.928,1289.551,136.146,1313.232,179.372C1337.804,224.225,1385.258,255.481,1436.312,252.472" fill="rgba(194, 194, 194, 0.59)" class="triangle-float3"></path><path d="M36.318,554.168C60.892,553.881,82.747,539.501,94.926,518.155C106.992,497.006,108.425,470.794,95.747,450.006C83.53,429.976,59.717,420.341,36.318,422.06C15.57,423.585,1.346,440.12,-9.693,457.754C-21.749,477.014,-34.499,499.047,-24.713,519.554C-13.917,542.177,11.253,554.461,36.318,554.168" fill="rgba(194, 194, 194, 0.59)" class="triangle-float1"></path><path d="M66.074,600.403C98.016,599.495,129.232,587.423,145.977,560.206C163.522,531.688,164.949,495.65,148.446,466.517C131.714,436.98,99.958,417.086,66.074,419.152C34.931,421.051,15.581,448.901,-0.563,475.601C-17.558,503.709,-37.571,536.008,-22.1,564.982C-6.11,594.929,32.14,601.367,66.074,600.403" fill="rgba(194, 194, 194, 0.59)" class="triangle-float1"></path><path d="M104.623,690.456C150.149,689.015,182.806,650.256,203.094,609.475C220.982,573.517,220.173,532.275,200.823,497.082C180.673,460.434,146.442,430.862,104.623,430.381C62.091,429.892,26.179,458.221,4.516,494.826C-17.617,532.224,-25.067,577.384,-5.271,616.07C16.326,658.275,57.237,691.956,104.623,690.456" fill="rgba(194, 194, 194, 0.59)" class="triangle-float2"></path><path d="M1407.099,622.649C1444.2,624.397,1485.331,615.137,1502.978,582.455C1520.093,550.758,1500.88,514.535,1482.059,483.821C1464.386,454.982,1440.92,425.653,1407.099,425.995C1373.668,426.333,1350.825,456.013,1334.721,485.312C1319.362,513.254,1310.825,545.892,1325.691,574.1C1341.479,604.058,1373.273,621.055,1407.099,622.649" fill="rgba(194, 194, 194, 0.59)" class="triangle-float1"></path><path d="M1348.826,517.907C1367.57,518.619,1387.678,512.913,1396.772,496.507C1405.674,480.447,1398.879,461.097,1388.832,445.728C1379.853,431.992,1365.235,422.945,1348.826,423.163C1332.782,423.376,1318.885,433.016,1310.62,446.768C1302.066,461.001,1298.942,478.461,1306.799,493.091C1315.049,508.453,1331.402,517.245,1348.826,517.907" fill="rgba(194, 194, 194, 0.59)" class="triangle-float2"></path><path d="M1374.97,569.712C1401.381,571.136,1426.438,555.184,1438.449,531.62C1449.559,509.823,1440.69,485.268,1428.956,463.801C1416.542,441.089,1400.797,417.182,1374.97,415.487C1346.838,413.641,1319.32,430.384,1307.14,455.809C1296.152,478.747,1309.324,503.504,1322.337,525.357C1334.919,546.485,1350.415,568.388,1374.97,569.712" fill="rgba(194, 194, 194, 0.59)" class="triangle-float3"></path></g><defs><mask id="SvgjsMask1371"><rect width="1440" height="560" fill="#ffffff"></rect></mask><style>
                @keyframes float1 {
                    0%{transform: translate(0, 0)}
                    50%{transform: translate(-10px, 0)}
                    100%{transform: translate(0, 0)}
                }

                .triangle-float1 {
                    animation: float1 5s infinite;
                }

                @keyframes float2 {
                    0%{transform: translate(0, 0)}
                    50%{transform: translate(-5px, -5px)}
                    100%{transform: translate(0, 0)}
                }

                .triangle-float2 {
                    animation: float2 4s infinite;
                }

                @keyframes float3 {
                    0%{transform: translate(0, 0)}
                    50%{transform: translate(0, -10px)}
                    100%{transform: translate(0, 0)}
                }

                .triangle-float3 {
                    animation: float3 6s infinite;
                }
            </style></defs></svg>